# xmcd
#
# Track frame offsets:
#	150
#	19562
#	37332
#	54527
#	74302
#	91565
#	108305
#	123595
#	137122
#	154425
#	177642
#
# Disc length: 2576 seconds
#
# Revision: 2
# Processed by: cddbd v1.5.2PL0 Copyright (c) Steve Scherf et al.
# Submitted via: EasyCDDAExtractor 15.3.0.1
#
DISCID=9a0a0e0b
DTITLE=Chayanne - No Hay Imposibles
DYEAR=2010
DGENRE=Latin
TTITLE0=Si No Estas
TTITLE1=Me Pierdo Contigo
TTITLE2=Por Esa Mujer
TTITLE3=Me Enamore De Ti
TTITLE4=Siento
TTITLE5=Dime
TTITLE6=Tu Boca
TTITLE7=Besos En La Boca (Beijar Na Boca)
TTITLE8=El Hombre Que Fui
TTITLE9=No Hay Imposibles
TTITLE10=Dame Dame
EXTD=YEAR: 2010
EXTT0=
EXTT1=
EXTT2=
EXTT3=
EXTT4=
EXTT5=
EXTT6=
EXTT7=
EXTT8=
EXTT9=
EXTT10=
PLAYORDER=
